<?xml version="1.0" encoding="UTF-8" standalone="no"?>
<!-- Created with Inkscape (http://www.inkscape.org/) -->

<svg
   xmlns:dc="http://purl.org/dc/elements/1.1/"
   xmlns:cc="http://creativecommons.org/ns#"
   xmlns:rdf="http://www.w3.org/1999/02/22-rdf-syntax-ns#"
   xmlns:svg="http://www.w3.org/2000/svg"
   xmlns="http://www.w3.org/2000/svg"
   xmlns:sodipodi="http://sodipodi.sourceforge.net/DTD/sodipodi-0.dtd"
   xmlns:inkscape="http://www.inkscape.org/namespaces/inkscape"
   width="64px"
   height="64px"
   id="svg2995"
   version="1.1"
   inkscape:version="0.48.3.1 r9886"
   inkscape:export-filename="/home/rakshasa/src/ficmake/ficmake-1.0.0/images/icon.png"
   inkscape:export-xdpi="90"
   inkscape:export-ydpi="90"
   sodipodi:docname="New document 2">
  <defs
     id="defs2997" />
  <sodipodi:namedview
     id="base"
     pagecolor="#ffffff"
     bordercolor="#666666"
     borderopacity="1.0"
     inkscape:pageopacity="0.0"
     inkscape:pageshadow="2"
     inkscape:zoom="1"
     inkscape:cx="32"
     inkscape:cy="32"
     inkscape:current-layer="layer1"
     showgrid="true"
     inkscape:document-units="px"
     inkscape:grid-bbox="true"
     inkscape:window-width="1680"
     inkscape:window-height="1001"
     inkscape:window-x="0"
     inkscape:window-y="25"
     inkscape:window-maximized="1">
    <inkscape:grid
       type="xygrid"
       id="grid3003"
       empspacing="4"
       visible="true"
       enabled="true"
       snapvisiblegridlinesonly="true" />
  </sodipodi:namedview>
  <metadata
     id="metadata3000">
    <rdf:RDF>
      <cc:Work
         rdf:about="">
        <dc:format>image/svg+xml</dc:format>
        <dc:type
           rdf:resource="http://purl.org/dc/dcmitype/StillImage" />
        <dc:title></dc:title>
      </cc:Work>
    </rdf:RDF>
  </metadata>
  <g
     id="layer1"
     inkscape:label="Layer 1"
     inkscape:groupmode="layer">
    <g
       id="g3039">
      <path
         sodipodi:nodetypes="csscsccccssccc"
         inkscape:connector-curvature="0"
         id="path3005-1"
         d="m 17,21 c 0,-1 3,-1 4,-1 1,0 1,0 2,0 1,0 1,1 1,1 0,0 0,-1 1,-1 1,0 23,0 23,0 l 0,28 c -9,0 -21.245725,0 -27,0 -1,0 -1,-1 -1,-1 0,0 0,1 -1,1 -0.515,0 -0.50375,0 -1,0 -1,0 -2,-1 -2,-2 0,-3 0,-19 0,-24 0,-1 1,-1 1,-1 z"
         style="fill:#000080;stroke:#000000;stroke-width:1px;stroke-linecap:butt;stroke-linejoin:miter;stroke-opacity:1" />
      <path
         sodipodi:nodetypes="ssscscccsccssss"
         inkscape:connector-curvature="0"
         id="path3005-7"
         d="m 17,18 c 0,-1 0,-1 1,-1 1,0 1,0 2,0 1,0 1,1 1,1 0,0 0,-1 1,-1 1,0 22,0 22,0 l 3,4 0,26 c 0,0 -22,0 -23,0 -1,0 -3,0 -3,0 -1,0 -1,-1 -1,-1 0,0 0,1 -1,1 -1,0 -2,-1 -2,-2 0,-1 1,-2 2,-2 1,0 -2,-24.5 -2,-25 z"
         style="fill:#ffffff;stroke:#000000;stroke-width:1px;stroke-linecap:butt;stroke-linejoin:miter;stroke-opacity:1" />
      <path
         sodipodi:nodetypes="csscsccscsssc"
         inkscape:connector-curvature="0"
         id="path3005"
         d="m 16,17 c 0,-1 0,-1 1,-1 1,0 1,0 2,0 1,0 1,1 1,1 0,0 0,-1 1,-1 1,0 23,0 23,0 l 0,28 c 0,0 -22,0 -23,0 -1,0 -1,-1 -1,-1 0,0 0,1 -1,1 -1,0 0,0 -1,0 -1,0 -2,-1 -2,-2 0,-1 0,-25 0,-25 z"
         style="fill:#0000ff;stroke:#000000;stroke-width:1px;stroke-linecap:butt;stroke-linejoin:miter;stroke-opacity:1" />
    </g>
    <path
       style="fill:#008000;stroke:#000000;stroke-width:1px;stroke-linecap:butt;stroke-linejoin:miter;stroke-opacity:1"
       d="m 34,60 0,-8 4,0 -6,-8 -6,8 4,0 0,8 z"
       id="path3044"
       inkscape:connector-curvature="0"
       sodipodi:nodetypes="cccccccc" />
    <path
       style="fill:#008000;stroke:#000000;stroke-width:1px;stroke-linecap:butt;stroke-linejoin:miter;stroke-opacity:1"
       d="m 34,20 0,-8 4,0 -6,-8 -6,8 4,0 0,8 z"
       id="path3044-8"
       inkscape:connector-curvature="0"
       sodipodi:nodetypes="cccccccc" />
    <path
       style="fill:#008000;stroke:#000000;stroke-width:1px;stroke-linecap:butt;stroke-linejoin:miter;stroke-opacity:1"
       d="m 44,34 8,0 0,4 8,-6 -8,-6 0,4 -8,0 z"
       id="path3044-6"
       inkscape:connector-curvature="0"
       sodipodi:nodetypes="cccccccc" />
    <path
       style="fill:#008000;stroke:#000000;stroke-width:1px;stroke-linecap:butt;stroke-linejoin:miter;stroke-opacity:1"
       d="m 20,30 -8,0 0,-4 -8,6 8,6 0,-4 8,0 z"
       id="path3044-2"
       inkscape:connector-curvature="0"
       sodipodi:nodetypes="cccccccc" />
  </g>
</svg>
